# xmcd
#
# Track frame offsets: 
#        150
#        14500
#        33486
#        48805
#        67995
#        81957
#        98330
#        115088
#        128520
#        142465
#
# Disc length: 2240 seconds
#
# Revision: 0
# Processed by: cddbd v1.5.2PL0 Copyright (c) Steve Scherf et al.
# Submitted via: ExactAudioCopy v1.3
#
DISCID=7d08be0a
DTITLE=Grainne Duffy - Where I Belong
DYEAR=2017
DGENRE=Bluesrock
TTITLE0=Where I Belong
TTITLE1=My Love
TTITLE2=Don't You Wanna Know
TTITLE3=Home
TTITLE4=Shine
TTITLE5=All Of My Love
TTITLE6=Blame It On You
TTITLE7=Don't Wanna Be Lonely
TTITLE8=Open Arms
TTITLE9=Canyon Road
EXTD=
EXTT0=
EXTT1=
EXTT2=
EXTT3=
EXTT4=
EXTT5=
EXTT6=
EXTT7=
EXTT8=
EXTT9=
PLAYORDER=
